<?xml version="1.0" standalone="no"?>
<!DOCTYPE svg PUBLIC "-//W3C//DTD SVG 1.1//EN" "http://www.w3.org/Graphics/SVG/1.1/DTD/svg11.dtd" >
<svg xmlns="http://www.w3.org/2000/svg">
<metadata>Generated by IcoMoon</metadata>
<defs>
<font id="icomoon" horiz-adv-x="1024">
<font-face units-per-em="1024" ascent="960" descent="-64" />
<missing-glyph horiz-adv-x="1024" />
<glyph unicode="&#x20;" horiz-adv-x="512" d="" />
<glyph unicode="&#xe900;" glyph-name="1" horiz-adv-x="768" d="M431.4-38.4c102.6 128.397 336.6 439.6 336.6 614.4 0 212-172 384-384 384s-384-172-384-384c0-174.8 234-486.003 336.6-614.4 24.6-30.598 70.2-30.598 94.799 0zM384 704c33.948 0 66.505-13.485 90.509-37.491s37.491-56.562 37.491-90.509c0-33.948-13.485-66.505-37.491-90.509s-56.562-37.491-90.509-37.491c-33.948 0-66.505 13.485-90.509 37.491s-37.491 56.562-37.491 90.509c0 33.948 13.485 66.505 37.491 90.509s56.562 37.491 90.509 37.491z" />
<glyph unicode="&#xe901;" glyph-name="2" d="M512 960c135.789 0 266.022-53.943 362.042-149.962 96.013-96.019 149.958-226.248 149.958-362.038s-53.946-266.022-149.958-362.042c-96.019-96.013-226.253-149.958-362.042-149.958-135.791 0-266.020 53.946-362.038 149.958-96.019 96.019-149.962 226.253-149.962 362.042 0 135.791 53.943 266.020 149.962 362.038s226.248 149.962 362.038 149.962zM464 720v-272c0-16 8-31 21.4-40l192.002-128c21.997-14.803 51.795-8.8 66.598 13.402s8.8 51.798-13.402 66.598l-170.598 113.6v246.4c0 26.6-21.4 48-48 48s-48-21.4-48-48z" />
<glyph unicode="&#xe902;" glyph-name="3" d="M128 543.8l384 284.4 384-284.4v-94.8l-317-234.996c-19.4-14.4-42.8-22.003-67-22.003s-47.6 7.802-67 22.003l-317 234.996v94.8zM512 960c-24.2 0-47.6-7.8-67-22l-393.2-291.4c-32.6-24.2-51.8-62.2-51.8-102.801v-479.8c0-70.598 57.4-128 128-128h768c70.598 0 128 57.402 128 128v479.8c0 40.6-19.2 78.801-51.802 102.801l-393.198 291.4c-19.4 14.2-42.8 22-67 22z" />
<glyph unicode="&#xe903;" glyph-name="4" d="M560 960.038c256.201 0 464-207.8 464-464 0-26.598-21.402-48-48-48s-48 21.402-48 48c0 203.2-164.8 368-368 368-26.598 0-48 21.4-48 48s21.402 48 48 48zM576 576.038c16.973 0 33.254-6.743 45.257-18.745s18.743-28.282 18.743-45.255c0-16.973-6.741-33.254-18.743-45.257s-28.284-18.743-45.257-18.743c-16.973 0-33.254 6.741-45.257 18.743s-18.743 28.284-18.743 45.257c0 16.973 6.741 33.252 18.743 45.255s28.284 18.745 45.257 18.745zM512 720.038c0 26.6 21.402 48 48 48 150.199 0 272-121.8 272-272 0-26.598-21.402-48-48-48s-48 21.402-48 48c0 97.2-78.801 176-176 176-26.598 0-48 21.4-48 48zM235 957.238c38.8 10.6 79.4-9.2 94.8-46.4l80-192c13.6-32.6 4.2-70.4-23.2-92.6l-98.6-80.8c66.6-140.8 180.599-254.801 321.399-321.4l80.602 98.598c22.4 27.401 59.998 36.8 92.599 23.202l192-80c37.201-15.403 56.998-56 46.4-94.801l-48-176c-9.399-34.799-40.998-58.999-77.001-58.999-494.8 0-896 401.199-896 896 0 36 24.2 67.6 59 77.2l176 48z" />
<glyph unicode="&#xe904;" glyph-name="5" d="M779.2 384l-358.4-358.4 91.2-89.6 512 512-512 512-91.2-89.6 358.4-358.4h-779.2v-128h779.2z" />
<glyph unicode="&#xe905;" glyph-name="6" horiz-adv-x="1463" d="M1405.886 921.25c39.292-39.285 39.292-103.086 0-142.371l-804.569-804.574c-39.286-39.285-103.085-39.285-142.371 0l-402.286 402.288c-39.286 39.286-39.286 103.086 0 142.371s103.085 39.286 142.371 0l331.257-330.943 733.546 733.229c39.285 39.286 103.080 39.286 142.365 0h-0.315z" />
<glyph unicode="&#xe906;" glyph-name="7" horiz-adv-x="853" d="M162.222 930.205c-32.889 20.222-74.222 20.889-107.778 2s-54.444-54.444-54.444-93.111v-782.222c0-38.667 20.889-74.223 54.444-93.11 33.556-18.89 74.889-18 107.778 2l639.999 391.111c31.778 19.334 51.112 53.777 51.112 91.11s-19.334 71.555-51.112 91.11l-639.999 391.112z" />
<glyph unicode="&#xe907;" glyph-name="8" horiz-adv-x="1555" d="M111.502 163.556c-40.635 0-73.576-32.941-73.576-73.576v-42.477c0-40.636 32.941-73.576 73.576-73.576h1331.959c40.636 0 73.576 32.941 73.576 73.576v42.477c0 40.636-32.941 73.576-73.576 73.576h-1331.959zM0 89.979c0 61.58 49.921 111.502 111.502 111.502h1331.959c61.58 0 111.502-49.922 111.502-111.502v-42.477c0-61.58-49.922-111.502-111.502-111.502h-1331.959c-61.581 0-111.502 49.922-111.502 111.502v42.477zM666.068 938.672c13.657 13.656 32.178 21.328 51.49 21.328h119.846c9.563 0 19.031-1.884 27.866-5.543s16.862-9.023 23.624-15.785c6.762-6.762 12.125-14.789 15.785-23.624s5.543-18.303 5.543-27.866v-16.944c146.974-29.998 279.63-108.955 376.132-224.206 99.906-119.319 154.709-269.949 154.831-425.573v-37.941c0-10.473-8.49-18.963-18.963-18.963h-1289.481c-10.473 0-18.963 8.49-18.963 18.963v37.926c0.121 155.623 54.924 306.269 154.831 425.588 96.503 115.251 229.158 194.207 376.132 224.206v16.944c0 19.312 7.672 37.834 21.328 51.49zM717.559 922.074c-9.254 0-18.129-3.676-24.673-10.22-6.542-6.544-10.219-15.418-10.219-24.672v-32.616c0-9.182-6.578-17.045-15.616-18.665-144.428-25.893-275.164-101.715-369.362-214.215s-145.869-254.521-145.984-401.249v-18.955h1251.556v18.948c-0.114 146.732-51.786 288.755-145.984 401.256-94.199 112.5-224.935 188.322-369.362 214.215-9.038 1.62-15.616 9.483-15.616 18.665v32.616c0 4.582-0.903 9.119-2.657 13.353-1.752 4.233-4.324 8.080-7.562 11.32-3.241 3.24-7.086 5.81-11.321 7.564-4.233 1.754-8.77 2.656-13.352 2.656h-119.846zM663.704 884.148c10.473 0 18.963-8.49 18.963-18.963v-279.135c0-10.473-8.49-18.963-18.963-18.963s-18.963 8.49-18.963 18.963v279.135c0 10.473 8.49 18.963 18.963 18.963zM663.704 404.742c10.473 0 18.963-8.492 18.963-18.963v-184.322h189.63v184.322c0 10.471 8.49 18.963 18.963 18.963s18.963-8.492 18.963-18.963v-203.285c0-10.471-8.49-18.963-18.963-18.963h-227.556c-10.473 0-18.963 8.492-18.963 18.963v203.285c0 10.471 8.49 18.963 18.963 18.963zM891.259 884.148c10.473 0 18.963-8.49 18.963-18.963v-279.135c0-10.473-8.49-18.963-18.963-18.963s-18.963 8.49-18.963 18.963v279.135c0 10.473 8.49 18.963 18.963 18.963zM797.688 616.897c-30.712 4.729-62.113-1.464-88.728-17.507-26.616-16.041-46.759-40.911-56.921-70.279-10.162-29.366-9.7-61.368 1.308-90.429s31.862-53.339 58.931-68.602c27.068-15.265 58.633-20.548 89.196-14.931 30.565 5.617 58.188 21.779 78.061 45.67 19.871 23.891 30.731 53.999 30.686 85.074-0.047 32.265-11.844 63.41-33.185 87.609-20.554 23.307-48.634 38.664-79.349 43.395zM689.383 631.874c34.219 20.624 74.591 28.589 114.079 22.507 39.488-6.083 75.592-25.828 102.019-55.793 27.439-31.113 42.606-71.155 42.667-112.64 0.057-39.955-13.906-78.662-39.454-109.38s-61.066-51.498-100.361-58.721c-39.297-7.221-79.881-0.429-114.682 19.198-34.803 19.625-61.616 50.84-75.768 88.202-14.154 37.365-14.749 78.509-1.684 116.266 13.067 37.759 38.965 69.734 73.186 90.36z" />
<glyph unicode="&#xe908;" glyph-name="9" d="M499.371 897.808c7.226 6.342 18.033 6.342 25.259 0l44.117-38.722 53.974 23.335c8.846 3.825 19.157 0.477 24.069-7.814l30.012-50.657 58.59 5.399c9.582 0.883 18.331-5.484 20.437-14.873l12.853-57.281 57.281-12.851c9.389-2.107 15.756-10.856 14.873-20.438l-5.398-58.59 50.656-30.012c8.292-4.913 11.639-15.223 7.815-24.069l-23.335-53.974 38.722-44.117c6.342-7.226 6.342-18.033 0-25.259l-38.722-44.117 23.335-53.974c3.824-8.846 0.477-19.157-7.815-24.069l-50.656-30.012 5.398-58.59c0.884-9.582-5.484-18.331-14.873-20.437l-57.281-12.853-12.853-57.281c-2.106-9.389-10.854-15.756-20.437-14.873l-58.59 5.398-30.012-50.656c-4.913-8.292-15.223-11.639-24.069-7.815l-53.974 23.335-44.117-38.722c-7.226-6.342-18.033-6.342-25.259 0l-44.117 38.722-53.974-23.335c-8.846-3.824-19.157-0.477-24.069 7.815l-30.012 50.656-58.59-5.398c-9.582-0.884-18.331 5.484-20.438 14.873l-12.851 57.281-57.281 12.853c-9.389 2.106-15.756 10.854-14.873 20.437l5.398 58.59-50.656 30.012c-8.292 4.913-11.639 15.223-7.815 24.069l23.335 53.974-38.722 44.117c-6.342 7.226-6.342 18.033 0 25.259l38.722 44.117-23.335 53.974c-3.825 8.846-0.477 19.157 7.815 24.069l50.656 30.012-5.398 58.59c-0.884 9.582 5.484 18.331 14.873 20.438l57.281 12.851 12.851 57.281c2.107 9.389 10.856 15.756 20.438 14.873l58.59-5.399 30.012 50.657c4.913 8.292 15.223 11.639 24.069 7.814l53.974-23.335 44.117 38.722zM512 857.945l-40.595-35.63c-5.56-4.881-13.435-6.12-20.227-3.184l-49.619 21.452-27.59-46.569c-3.769-6.361-10.865-9.984-18.229-9.305l-53.891 4.966-11.825-52.698c-1.621-7.226-7.264-12.868-14.49-14.49l-52.698-11.825 4.966-53.891c0.679-7.364-2.945-14.459-9.305-18.229l-46.57-27.59 21.453-49.619c2.937-6.791 1.697-14.667-3.184-20.227l-35.63-40.595 35.63-40.595c4.881-5.56 6.12-13.435 3.184-20.227l-21.453-49.619 46.57-27.59c6.361-3.769 9.984-10.865 9.305-18.227l-4.966-53.893 52.698-11.825c7.226-1.621 12.868-7.264 14.49-14.49l11.825-52.698 53.891 4.966c7.364 0.679 14.459-2.945 18.229-9.305l27.59-46.568 49.619 21.453c6.791 2.935 14.667 1.696 20.227-3.185l40.595-35.63 40.595 35.63c5.56 4.881 13.435 6.12 20.227 3.185l49.619-21.454 27.59 46.57c3.769 6.361 10.865 9.984 18.227 9.305l53.893-4.966 11.825 52.698c1.621 7.226 7.264 12.868 14.49 14.49l52.698 11.825-4.966 53.893c-0.679 7.362 2.945 14.458 9.305 18.227l46.57 27.59-21.454 49.619c-2.935 6.791-1.696 14.667 3.185 20.227l35.63 40.595-35.63 40.595c-4.881 5.56-6.12 13.435-3.185 20.227l21.453 49.619-46.568 27.59c-6.361 3.769-9.984 10.865-9.305 18.229l4.966 53.891-52.698 11.825c-7.226 1.621-12.868 7.264-14.49 14.49l-11.825 52.698-53.893-4.966c-7.362-0.679-14.458 2.945-18.227 9.305l-27.59 46.569-49.619-21.452c-6.791-2.937-14.667-1.697-20.227 3.184l-40.595 35.63zM512 634.529c-74.016 0-134.017-60.001-134.017-134.017s60.001-134.017 134.017-134.017c74.016 0 134.017 60.001 134.017 134.017s-60.001 134.017-134.017 134.017zM339.692 500.513c0 95.162 77.145 172.308 172.308 172.308s172.308-77.145 172.308-172.308c0-95.162-77.145-172.308-172.308-172.308s-172.308 77.145-172.308 172.308zM473.709 500.53c0 21.147 17.143 38.291 38.29 38.291s38.291-17.144 38.291-38.291c0-21.147-17.144-38.291-38.291-38.291s-38.29 17.144-38.29 38.291zM-9271.243 11566.5c0 10.568 8.573 19.141 19.141 19.141h13018.808c10.568 0 19.141-8.573 19.141-19.141v-13018.808c0-10.568-8.573-19.141-19.141-19.141h-13018.808c-10.568 0-19.141 8.573-19.141 19.141v13018.808zM-9232.962 11547.346v-12980.513h12980.513v12980.513h-12980.513z" />
<glyph unicode="&#xe909;" glyph-name="10" d="M325.809 599.572c-4.103 1.173-8.439 1.274-12.594 0.293-4.153-0.98-7.986-3.011-11.132-5.894-3.145-2.885-5.499-6.527-6.836-10.581l-0.022-0.066-176.145-528.238 528.105 176.365c4.054 1.337 7.696 3.691 10.581 6.837 2.883 3.145 4.914 6.978 5.894 11.132s0.881 8.489-0.293 12.592-3.378 7.838-6.404 10.847l-0.048 0.047-128 128c-8.331 8.331-8.331 21.839 0 30.17s21.839 8.331 30.17 0l127.953-127.953c0.009-0.009 0.016-0.016 0.025-0.025 8.189-8.147 14.156-18.256 17.329-29.362 3.177-11.119 3.451-22.866 0.793-34.121s-8.155-21.639-15.97-30.161c-7.807-8.515-17.665-14.889-28.634-18.512-0.012-0.003-0.022-0.006-0.032-0.010l-568.457-189.841c-7.667-2.56-16.122-0.568-21.839 5.146s-7.713 14.169-5.156 21.836l189.631 568.68c0.004 0.012 0.007 0.023 0.012 0.035 3.623 10.967 9.996 20.825 18.511 28.631 8.523 7.815 18.907 13.313 30.161 15.97s23.002 2.384 34.12-0.791c11.107-3.174 21.217-9.141 29.364-17.33 0.009-0.009 0.016-0.016 0.025-0.023l127.953-127.953c8.331-8.331 8.331-21.839 0-30.17s-21.839-8.331-30.17 0l-128.047 128.047c-3.009 3.027-6.744 5.233-10.847 6.404zM569.751 569.752c8.331-8.332 8.331-21.839 0-30.17l-112.915-112.915 33.83-33.83 112.915 112.915c8.331 8.331 21.839 8.331 30.17 0s8.331-21.839 0-30.17l-128-128c-8.331-8.331-21.839-8.331-30.17 0l-64 64c-8.331 8.331-8.331 21.838 0 30.17l128 128c8.331 8.331 21.839 8.331 30.17 0zM788.54 889.752c8.332 8.331 21.839 8.331 30.17 0l135.041-135.040c4.001-4.001 6.248-9.427 6.248-15.085s-2.247-11.084-6.248-15.085l-251.728-251.728c-0.001-0.001 0.001 0.001 0 0-4.418-4.418-9.667-7.929-15.438-10.32-5.774-2.392-11.963-3.623-18.213-3.623s-12.439 1.232-18.213 3.623c-5.771 2.392-11.015 5.897-15.432 10.316-0.001 0.001 0.001-0.001 0 0l-97.916 97.915c-4.421 4.418-7.927 9.664-10.319 15.438-2.393 5.774-3.625 11.963-3.625 18.213s1.232 12.439 3.625 18.211c2.392 5.772 5.897 11.017 10.315 15.433 0.001 0.001-0.001-0.001 0 0l251.733 251.734zM-13290.672 4074.672c0 11.776 9.552 21.328 21.343 21.328h14506.663c11.782 0 21.333-9.552 21.333-21.328v-14506.672c0-11.776-9.551-21.328-21.333-21.328h-14506.663c-11.791 0-21.343 9.552-21.343 21.328v14506.672zM-13248 4053.328v-14464h14464.001v14464h-14464.001z" />
<glyph unicode="&#xe90a;" glyph-name="11" d="M576.001 832c11.782 0 21.333-9.551 21.333-21.333v-213.334c0-11.782-9.551-21.333-21.333-21.333s-21.334 9.551-21.334 21.333v213.334c0 11.782 9.552 21.333 21.334 21.333zM448.001 832c11.782 0 21.333-9.551 21.333-21.333v-213.334c0-11.782-9.551-21.333-21.333-21.333s-21.334 9.551-21.334 21.333v213.334c0 11.782 9.552 21.333 21.334 21.333zM320.001 789.314c11.782 0 21.333-9.551 21.333-21.333v-170.667c0-11.782-9.551-21.333-21.333-21.333s-21.334 9.551-21.334 21.333v170.667c0 11.782 9.552 21.333 21.334 21.333zM323.662 828.321c16.004 16.003 37.708 24.993 60.34 24.993s44.336-8.99 60.34-24.993c16.002-16.004 24.993-37.708 24.993-60.34 0-11.782-9.551-21.333-21.333-21.333s-21.334 9.551-21.334 21.333c0 11.315-4.494 22.168-12.496 30.17s-18.855 12.497-30.17 12.497c-11.317 0-22.168-4.495-30.17-12.497s-12.497-18.855-12.497-30.17c0-11.782-9.551-21.333-21.333-21.333s-21.334 9.551-21.334 21.333c0 22.632 8.991 44.336 24.994 60.34zM451.662 871.007c16.004 16.003 37.708 24.993 60.34 24.993s44.336-8.99 60.34-24.993c16.002-16.003 24.993-37.708 24.993-60.339 0-11.782-9.551-21.334-21.333-21.334s-21.334 9.552-21.334 21.334c0 11.315-4.494 22.168-12.496 30.169s-18.855 12.497-30.17 12.497c-11.317 0-22.168-4.495-30.17-12.497s-12.497-18.854-12.497-30.169c0-11.782-9.551-21.334-21.333-21.334s-21.334 9.552-21.334 21.334c0 22.631 8.991 44.336 24.994 60.339zM610.496 848.166c10.885 4.011 22.472 5.76 34.055 5.141 0.237-0.013 0.475-0.029 0.712-0.050 22.057-1.92 42.572-12.114 57.423-28.535 14.819-16.384 22.905-37.755 22.646-59.84v-237.716l55.782 69.726c0.018 0.023 0.035 0.045 0.053 0.067 13.767 17.426 33.634 28.979 55.591 32.325 21.984 3.35 44.42-1.779 62.765-14.348 0.238-0.164 0.474-0.332 0.705-0.505 9.103-6.796 16.758-15.342 22.515-25.136 5.758-9.794 9.5-20.639 11.011-31.899s0.756-22.708-2.216-33.674c-2.973-10.964-8.106-21.225-15.097-30.18-0.102-0.133-0.208-0.263-0.315-0.394l-153.214-186.971c-24.188-28.428-37.505-64.518-37.581-101.844v-12.33c0-16.974-6.742-33.252-18.745-45.255s-28.281-18.745-45.255-18.745h-0.018c-5.512 0.004-10.813-2.126-14.791-5.944-3.891-3.736-6.22-8.805-6.524-14.184v-86.54c0-11.782-9.551-21.333-21.333-21.333h-341.334c-11.782 0-21.333 9.551-21.333 21.333v85.334c0 5.657-2.248 11.084-6.249 15.085-3.998 3.998-9.421 6.245-15.076 6.248zM661.346 170.672c5.652 0.003 11.074 2.25 15.072 6.248 4.001 4.001 6.249 9.427 6.249 15.085v12.417c0.095 47.361 16.968 93.155 47.62 129.254l152.662 186.304c3.425 4.434 5.942 9.501 7.409 14.911 1.486 5.481 1.862 11.205 1.107 16.836-0.755 5.629-2.627 11.052-5.505 15.95-2.806 4.773-6.513 8.953-10.914 12.308-9.351 6.274-20.718 8.82-31.862 7.121-11.286-1.719-21.497-7.664-28.567-16.63l-0.092-0.118-93.867-117.333c-5.66-7.074-15.171-9.803-23.72-6.804s-14.272 11.071-14.272 20.13v298.667l0.001 0.287c0.152 11.365-4.001 22.369-11.625 30.798-7.544 8.341-17.935 13.553-29.123 14.617-5.673 0.256-11.342-0.623-16.672-2.588-5.443-2.006-10.418-5.1-14.626-9.092-4.206-3.994-7.554-8.802-9.839-14.133s-3.458-11.072-3.451-16.871c0.018-11.783-9.52-21.347-21.302-21.364s-21.347 9.52-21.364 21.302c-0.018 11.6 2.332 23.081 6.902 33.742s11.265 20.279 19.678 28.265c8.411 7.986 18.365 14.174 29.248 18.184zM170.667 319.981c0 11.782 9.552 21.333 21.334 21.333h426.666c11.783 0 21.334-9.551 21.334-21.333s-9.551-21.333-21.334-21.333h-426.666c-11.782 0-21.334 9.551-21.334 21.333zM256 234.667c0 11.782 9.551 21.333 21.333 21.333h426.667c11.782 0 21.333-9.551 21.333-21.333s-9.551-21.334-21.333-21.334h-426.667c-11.782 0-21.333 9.552-21.333 21.334zM-7488 6975.985c0 11.776 9.552 21.328 21.328 21.328h14506.672c11.776 0 21.328-9.552 21.328-21.328v-14506.672c0-11.776-9.552-21.328-21.328-21.328h-14506.672c-11.776 0-21.328 9.552-21.328 21.328v14506.672zM-7445.328 6954.642v-14464h14464v14464h-14464z" />
<glyph unicode="&#xe90b;" glyph-name="12" horiz-adv-x="614" d="M139.014 361.4v-425.4h244.327v425.4h182.193l37.914 195.6h-220.107v69.2c0 103.4 42.758 143 153.127 143 34.33 0 61.921-0.8 77.932-2.4v177.4c-30.121 7.8-103.839 15.8-146.386 15.8-225.161 0-329-101-329-318.8v-84.2h-139.014v-195.6h139.014z" />
<glyph unicode="&#xe90c;" glyph-name="13" d="M806.385 960h157.092l-343.112-433.723 403.635-590.277h-315.965l-247.657 357.908-283.035-357.908h-157.316l366.922 464-386.948 560h323.977l223.622-327.138 258.785 327.138zM751.201 39.875h86.999l-561.618 821.664h-93.455l568.074-821.664z" />
<glyph unicode="&#xe90d;" glyph-name="14" d="M229.217-64h-212.302v683.673h212.302v-683.673zM122.951 712.932c-67.887 0-122.951 56.229-122.951 124.117 0 32.609 12.954 63.882 36.012 86.94s54.331 36.012 86.94 36.012c32.609 0 63.882-12.954 86.94-36.012s36.012-54.331 36.012-86.94c0-67.888-55.087-124.117-122.952-124.117zM1023.795-64h-211.845v332.805c0 79.319-1.603 181.035-110.382 181.035-110.377 0-127.293-86.172-127.293-175.316v-338.524h-212.072v683.673h203.614v-93.259h2.975c28.344 53.715 97.577 110.403 200.873 110.403 214.861 0 254.356-141.489 254.356-325.264v-375.552h-0.225z" />
<glyph unicode="&#xe90e;" glyph-name="15" d="M512.138 710.541c-145.289 0-262.481-117.218-262.481-262.541 0-145.321 117.192-262.538 262.481-262.538s262.482 117.217 262.482 262.538c0 145.323-117.192 262.541-262.482 262.541zM512.138 277.315c-93.89 0-170.647 76.544-170.647 170.685s76.529 170.686 170.647 170.686c94.121 0 170.65-76.546 170.65-170.686s-76.759-170.685-170.65-170.685zM846.582 721.28c0-34.046-27.412-61.237-61.225-61.237-34.038 0-61.22 27.42-61.22 61.237s27.412 61.237 61.22 61.237c33.812 0 61.225-27.42 61.225-61.237zM1020.426 659.129c-3.881 82.030-22.615 154.691-82.698 214.557-59.848 59.866-132.495 78.602-214.508 82.715-84.521 4.798-337.868 4.798-422.392 0-81.783-3.884-154.428-22.621-214.509-82.487s-78.585-132.527-82.697-214.557c-4.797-84.543-4.797-337.945 0-422.486 3.884-82.033 22.616-154.691 82.697-214.559 60.081-59.863 132.497-78.602 214.509-82.714 84.524-4.797 337.871-4.797 422.392 0 82.012 3.886 154.66 22.62 214.508 82.714 59.853 59.868 78.587 132.526 82.698 214.559 4.797 84.541 4.797 337.715 0 422.258zM911.232 146.161c-17.818-44.79-52.316-79.288-97.316-97.341-67.395-26.732-227.302-20.562-301.778-20.562-74.472 0-234.611-5.944-301.773 20.562-44.775 17.823-79.27 52.326-97.317 97.341-26.728 67.405-20.56 227.348-20.56 301.839 0 74.489-5.94 234.664 20.56 301.842 17.819 44.785 52.314 79.288 97.317 97.339 67.391 26.734 227.301 20.564 301.773 20.564 74.476 0 234.614 5.941 301.778-20.564 44.774-17.823 79.268-52.325 97.316-97.339 26.726-67.406 20.557-227.353 20.557-301.842 0-74.491 6.17-234.665-20.557-301.839z" />
<glyph unicode="&#xe90f;" glyph-name="16" d="M844.8 960c98.969 0 179.2-80.231 179.2-179.2s-80.231-179.2-179.2-179.2c-98.969 0-179.2 80.231-179.2 179.2s80.231 179.2 179.2 179.2zM179.2 960c98.969 0 179.2-80.231 179.2-179.2s-80.231-179.2-179.2-179.2c-98.969 0-179.2 80.231-179.2 179.2s80.231 179.2 179.2 179.2zM844.8 294.4c98.969 0 179.2-80.231 179.2-179.2s-80.231-179.2-179.2-179.2c-98.969 0-179.2 80.231-179.2 179.2s80.231 179.2 179.2 179.2zM179.2 294.4c98.969 0 179.2-80.231 179.2-179.2s-80.231-179.2-179.2-179.2c-98.969 0-179.2 80.231-179.2 179.2s80.231 179.2 179.2 179.2z" />
<glyph unicode="&#xe910;" glyph-name="17" horiz-adv-x="1434" d="M1238.798 950.003c13.329 13.33 34.942 13.33 48.271 0l136.533-136.533c6.4-6.401 9.998-15.083 9.998-24.136v-819.2c0-18.852-15.281-34.133-34.133-34.133h-273.067c-18.852 0-34.133 15.281-34.133 34.133v819.2c0 9.053 3.598 17.735 9.998 24.136l136.533 136.533zM1160.533 775.195v-770.928h204.8v770.928l-102.4 102.4-102.4-102.4zM146.531 950.003c13.33 13.33 34.942 13.33 48.272 0l136.533-136.533c6.401-6.401 9.997-15.083 9.997-24.136v-819.2c0-18.852-15.282-34.133-34.133-34.133h-273.067c-18.851 0-34.133 15.281-34.133 34.133v819.2c0 9.053 3.596 17.735 9.997 24.136l136.533 136.533zM68.267 775.195v-770.928h204.8v770.928l-102.4 102.4-102.4-102.4zM692.664 950.003c13.329 13.33 34.942 13.33 48.271 0l136.533-136.533c6.4-6.401 9.998-15.083 9.998-24.136v-819.2c0-18.852-15.281-34.133-34.133-34.133h-273.067c-18.852 0-34.133 15.281-34.133 34.133v819.2c0 9.053 3.598 17.735 9.998 24.136l136.533 136.533zM614.4 775.195v-770.928h204.8v770.928l-102.4 102.4-102.4-102.4zM273.067 618.667c0 18.851 15.282 34.133 34.133 34.133h273.067c18.852 0 34.133-15.282 34.133-34.133v-341.333c0-18.852-15.281-34.133-34.133-34.133h-273.067c-18.851 0-34.133 15.281-34.133 34.133v341.333zM341.333 584.533v-273.067h204.8v273.067h-204.8zM819.2 618.667c0 18.851 15.281 34.133 34.133 34.133h273.067c18.852 0 34.133-15.282 34.133-34.133v-341.333c0-18.852-15.281-34.133-34.133-34.133h-273.067c-18.852 0-34.133 15.281-34.133 34.133v341.333zM887.467 584.533v-273.067h204.8v273.067h-204.8z" />
<glyph unicode="&#xe911;" glyph-name="18" horiz-adv-x="1265" d="M101.798 899.765c-11.023 0-21.595-4.379-29.389-12.173s-12.173-18.366-12.173-29.389v-249.675c0-18.613 7.393-36.46 20.553-49.622 13.16-13.158 31.009-20.552 49.621-20.552h582.475c18.613 0 36.46 7.394 49.622 20.552 13.158 13.161 20.552 31.009 20.552 49.622v291.238h-681.261zM29.816 930.184c19.091 19.091 44.983 29.816 71.982 29.816h711.379c16.634 0 30.118-13.484 30.118-30.118v-321.355c0-34.587-13.74-67.756-38.195-92.214-24.459-24.456-57.627-38.195-92.214-38.195h-582.475c-34.587 0-67.757 13.74-92.213 38.195-24.457 24.459-38.196 57.627-38.196 92.214v249.675c0 26.998 10.725 52.891 29.816 71.982zM783.059 869.647c0 16.633 13.484 30.118 30.118 30.118h90.353c16.634 0 30.118-13.484 30.118-30.118h60.235c16.634 0 30.118-13.484 30.118-30.118v-180.706c0-16.634-13.484-30.118-30.118-30.118h-60.235c0-16.634-13.484-30.118-30.118-30.118h-90.353c-16.634 0-30.118 13.484-30.118 30.118v240.941zM873.412 658.824c0 16.633 13.484 30.118 30.118 30.118h60.235v120.471h-60.235c-16.634 0-30.118 13.484-30.118 30.118h-30.118v-180.706h30.118zM963.765 779.294c0 16.633 13.484 30.118 30.118 30.118h60.235c16.634 0 30.118-13.484 30.118-30.118v-60.235c0-16.633-13.484-30.118-30.118-30.118h-60.235c-16.634 0-30.118 13.484-30.118 30.118v60.235zM1054.118 749.176c0 16.633 13.484 30.118 30.118 30.118h150.588c16.634 0 30.118-13.484 30.118-30.118s-13.484-30.118-30.118-30.118h-150.588c-16.634 0-30.118 13.484-30.118 30.118zM391.529 779.294c0 16.633 13.484 30.118 30.118 30.118h240.941c16.634 0 30.118-13.484 30.118-30.118s-13.484-30.118-30.118-30.118h-240.941c-16.634 0-30.118 13.484-30.118 30.118zM30.118 809.412c0 16.633 13.484 30.118 30.118 30.118h90.353c16.633 0 30.118-13.484 30.118-30.118s-13.484-30.118-30.118-30.118h-90.353c-16.633 0-30.118 13.484-30.118 30.118zM30.118 688.941c0 16.633 13.484 30.118 30.118 30.118h90.353c16.633 0 30.118-13.484 30.118-30.118s-13.484-30.118-30.118-30.118h-90.353c-16.633 0-30.118 13.484-30.118 30.118zM90.353 508.235c0 16.634 13.484 30.118 30.118 30.118h180.706c14.709 0 27.266-10.626 29.702-25.13l60.241-358.737c4.491-26.943 3.045-54.54-4.235-80.869-7.282-26.326-20.221-50.745-37.921-71.554-17.697-20.805-39.722-37.496-64.541-48.908-24.8-11.403-51.789-17.257-79.084-17.155h-15.899c-26.279 0-51.483 10.439-70.065 29.021s-29.022 43.785-29.022 70.066v473.148zM150.588 478.118v-443.031c0-10.303 4.093-20.185 11.379-27.473 7.286-7.285 17.168-11.378 27.472-11.378h16.084c18.546-0.075 36.885 3.9 53.736 11.646 16.851 7.749 31.806 19.083 43.823 33.208 12.017 14.128 20.802 30.708 25.748 48.583 4.939 17.869 5.924 36.602 2.876 54.889 0 0.006 0.003-0.006 0 0l-56.012 333.556h-125.106zM90.353 417.882c0 16.634 13.484 30.118 30.118 30.118h30.118c16.633 0 30.118-13.484 30.118-30.118s-13.484-30.118-30.118-30.118h-30.118c-16.633 0-30.118 13.484-30.118 30.118zM90.353 327.529c0 16.634 13.484 30.118 30.118 30.118h30.118c16.633 0 30.118-13.484 30.118-30.118s-13.484-30.118-30.118-30.118h-30.118c-16.633 0-30.118 13.484-30.118 30.118zM90.353 237.176c0 16.634 13.484 30.118 30.118 30.118h30.118c16.633 0 30.118-13.484 30.118-30.118s-13.484-30.118-30.118-30.118h-30.118c-16.633 0-30.118 13.484-30.118 30.118zM90.353 146.824c0 16.634 13.484 30.118 30.118 30.118h30.118c16.633 0 30.118-13.484 30.118-30.118s-13.484-30.118-30.118-30.118h-30.118c-16.633 0-30.118 13.484-30.118 30.118z" />
<glyph unicode="&#xe912;" glyph-name="19" d="M244.8 384l358.4-358.4-91.2-89.6-512 512 512 512 91.2-89.6-358.4-358.4h779.2v-128h-779.2z" />
<glyph unicode="&#xe913;" glyph-name="20" horiz-adv-x="939" d="M713.143 515.046c100.954 0 182.857 90.097 182.857 201.144s-81.903 201.143-182.857 201.143c-100.954 0-182.857-90.095-182.857-201.143 0-8.381 0.38-16.762 1.331-24.933l-179.237-98.476c-32.762 34.991-77.524 56.362-126.857 56.362-100.952 0-182.857-90.095-182.857-201.143s81.905-201.143 182.857-201.143c49.333 0 94.095 21.372 126.857 56.363l179.237-98.475c-0.951-8.175-1.331-16.346-1.331-24.934 0-111.049 81.903-201.143 182.857-201.143s182.857 90.095 182.857 201.143c0 111.049-81.903 201.143-182.857 201.143-49.335 0-94.097-21.372-126.857-56.363l-179.239 98.475c0.952 8.171 1.333 16.346 1.333 24.934s-0.381 16.764-1.333 24.934l179.239 98.475c32.759-34.991 77.521-56.363 126.857-56.363z" />
<glyph unicode="&#xe914;" glyph-name="21" d="M832 544c0-91.8-29.798-176.599-80-245.402l253.199-253.399c25.001-25.001 25.001-65.597 0-90.598s-65.597-25.001-90.598 0l-253.199 253.399c-68.803-50.401-153.602-80-245.402-80-229.8 0-416 186.199-416 416s186.2 416 416 416c229.801 0 416-186.2 416-416zM416 256c37.821 0 75.271 7.45 110.213 21.924 34.944 14.474 66.688 35.686 93.435 62.428 26.742 26.747 47.954 58.491 62.428 93.435 14.474 34.942 21.924 72.392 21.924 110.213s-7.45 75.271-21.924 110.213c-14.474 34.942-35.686 66.691-62.428 93.434-26.747 26.743-58.491 47.957-93.435 62.43-34.942 14.473-72.392 21.923-110.213 21.923s-75.271-7.45-110.213-21.923c-34.942-14.473-66.691-35.687-93.434-62.43s-47.957-58.492-62.43-93.434c-14.474-34.941-21.923-72.392-21.923-110.213s7.449-75.271 21.923-110.213c14.473-34.944 35.687-66.688 62.43-93.435 26.743-26.742 58.492-47.954 93.434-62.428s72.392-21.924 110.213-21.924z" />
</font>
</defs>
</svg>
